grf
version=1
nRows=12
nColumns=37
inDegrees=no
endheader
time	ground_force_1_vx	ground_force_1_vy	ground_force_1_vz	ground_force_1_px	ground_force_1_py	ground_force_1_pz	ground_moment_1_mx	ground_moment_1_my	ground_moment_1_mz	ground_force_2_vx	ground_force_2_vy	ground_force_2_vz	ground_force_2_px	ground_force_2_py	ground_force_2_pz	ground_moment_2_mx	ground_moment_2_my	ground_moment_2_mz	ground_force_3_vx	ground_force_3_vy	ground_force_3_vz	ground_force_3_px	ground_force_3_py	ground_force_3_pz	ground_moment_3_mx	ground_moment_3_my	ground_moment_3_mz	ground_force_4_vx	ground_force_4_vy	ground_force_4_vz	ground_force_4_px	ground_force_4_py	ground_force_4_pz	ground_moment_4_mx	ground_moment_4_my	ground_moment_4_mz
      1.71000000	      0.00000000	     -0.00000000	      0.00000000	      0.00000000	      0.00000000	      0.00000000	      0.00000000	      0.00000000	      0.00000000	     -6.95698690	     75.13549805	   -558.72790527	   -264.20065024	  -1204.56593773	      0.00000000	      0.00000000	      0.00000000	   9279.41813319	      5.32579222	    -77.37136887	   -548.87872314	   -296.55799794	   -592.49587385	      0.00000000	      0.00000000	     -0.00000000	 -10626.00116188	      0.00000000	     -0.00000000	      0.00000000	      0.00000000	      0.00000000	      0.00000000	      0.00000000	      0.00000000	      0.00000000
      1.72000000	      0.00000000	     -0.00000000	      0.00000000	      0.00000000	      0.00000000	      0.00000000	      0.00000000	      0.00000000	      0.00000000	     -6.78044701	     74.86864471	   -559.43878174	   -263.90985185	  -1204.89576542	      0.00000000	      0.00000000	      0.00000000	   9470.26988308	      5.41135114	    -77.10482835	   -548.17376709	   -295.17794603	   -592.53072016	      0.00000000	      0.00000000	     -0.00000000	 -10650.27505278	      0.00000000	     -0.00000000	      0.00000000	      0.00000000	      0.00000000	      0.00000000	      0.00000000	      0.00000000	      0.00000000
      1.73000000	      0.00000000	     -0.00000000	      0.00000000	      0.00000000	      0.00000000	      0.00000000	      0.00000000	      0.00000000	      0.00000000	     -7.49380493	     74.33464050	   -562.96740723	   -263.78687241	  -1205.50778509	      0.00000000	      0.00000000	      0.00000000	   9847.94685463	      4.70702982	    -76.30860179	   -549.57525635	   -295.55967997	   -592.68577346	      0.00000000	      0.00000000	     -0.00000000	 -10852.13923428	      0.00000000	     -0.00000000	      0.00000000	      0.00000000	      0.00000000	      0.00000000	      0.00000000	      0.00000000	      0.00000000
      1.74000000	      0.00000000	     -0.00000000	      0.00000000	      0.00000000	      0.00000000	      0.00000000	      0.00000000	      0.00000000	      0.00000000	     -7.49374342	     73.80001831	   -563.67523193	   -263.30944928	  -1205.26695246	      0.00000000	      0.00000000	      0.00000000	   9859.35276733	      4.16819240	    -76.22041357	   -551.29614258	   -294.68078996	   -591.52687273	      0.00000000	      0.00000000	     -0.00000000	 -10881.13997894	      0.00000000	     -0.00000000	      0.00000000	      0.00000000	      0.00000000	      0.00000000	      0.00000000	      0.00000000	      0.00000000
      1.75000000	      0.00000000	     -0.00000000	      0.00000000	      0.00000000	      0.00000000	      0.00000000	      0.00000000	      0.00000000	      0.00000000	     -7.85011435	     73.80093384	   -565.44323730	   -262.73121089	  -1205.83995526	      0.00000000	     -0.00000000	      0.00000000	   9798.68725158	      3.98981146	    -75.86617314	   -550.24163818	   -293.63353174	   -592.58533976	      0.00000000	      0.00000000	     -0.00000000	 -11136.98181335	      0.00000000	     -0.00000000	      0.00000000	      0.00000000	      0.00000000	      0.00000000	      0.00000000	      0.00000000	      0.00000000
      1.76000000	      0.00000000	     -0.00000000	      0.00000000	      0.00000000	      0.00000000	      0.00000000	      0.00000000	      0.00000000	      0.00000000	     -7.93892241	     74.33395386	   -567.55590820	   -262.35793125	  -1205.25724080	      0.00000000	      0.00000000	      0.00000000	   9908.97242176	      3.54747473	    -75.16459687	   -549.54602051	   -293.35192202	   -592.45865375	      0.00000000	      0.00000000	     -0.00000000	 -11262.36661495	      0.00000000	     -0.00000000	      0.00000000	      0.00000000	      0.00000000	      0.00000000	      0.00000000	      0.00000000	      0.00000000
      1.77000000	      0.00000000	     -0.00000000	      0.00000000	      0.00000000	      0.00000000	      0.00000000	      0.00000000	      0.00000000	      0.00000000	     -7.04839516	     74.33628845	   -568.61975098	   -262.64339211	  -1206.11852410	      0.00000000	     -0.00000000	     -0.00000000	  10153.56867534	      2.40022126	    -74.63683340	   -548.51391602	   -293.02670791	   -592.55079370	      0.00000000	      0.00000000	     -0.00000000	 -11258.75443508	      0.00000000	     -0.00000000	      0.00000000	      0.00000000	      0.00000000	      0.00000000	      0.00000000	      0.00000000	      0.00000000
      1.78000000	      0.00000000	     -0.00000000	      0.00000000	      0.00000000	      0.00000000	      0.00000000	      0.00000000	      0.00000000	      0.00000000	     -6.24777412	     74.60264587	   -569.31604004	   -262.39998611	  -1205.20857204	      0.00000000	      0.00000000	      0.00000000	  10032.00604403	      1.94948266	    -73.83621996	   -547.81036377	   -291.58409169	   -592.40854238	      0.00000000	      0.00000000	     -0.00000000	 -11273.18994737	      0.00000000	     -0.00000000	      0.00000000	      0.00000000	      0.00000000	      0.00000000	      0.00000000	      0.00000000	      0.00000000
      1.79000000	      0.00000000	     -0.00000000	      0.00000000	      0.00000000	      0.00000000	      0.00000000	      0.00000000	      0.00000000	      0.00000000	     -5.97521162	     74.68687439	   -570.38061523	   -261.20599295	  -1205.71066769	      0.00000000	     -0.00000000	      0.00000000	  10040.42720530	      0.88650917	    -72.33546456	   -546.42456055	   -291.13738764	   -592.25848779	      0.00000000	      0.00000000	     -0.00000000	 -11338.92582707	      0.00000000	     -0.00000000	      0.00000000	      0.00000000	      0.00000000	      0.00000000	      0.00000000	      0.00000000	      0.00000000
      1.80000000	      0.00000000	     -0.00000000	      0.00000000	      0.00000000	      0.00000000	      0.00000000	      0.00000000	      0.00000000	      0.00000000	     -4.90963840	     74.42312622	   -569.66406250	   -260.73431093	  -1207.43449401	      0.00000000	      0.00000000	      0.00000000	  10003.69611619	      0.26750229	    -71.80552676	   -545.37670898	   -289.69354869	   -592.11041680	      0.00000000	      0.00000000	     -0.00000000	 -11359.60313383	      0.00000000	     -0.00000000	      0.00000000	      0.00000000	      0.00000000	      0.00000000	      0.00000000	      0.00000000	      0.00000000
      1.81000000	      0.00000000	     -0.00000000	      0.00000000	      0.00000000	      0.00000000	      0.00000000	      0.00000000	      0.00000000	      0.00000000	     -4.64154673	     74.42735291	   -565.80114746	   -259.52081394	  -1206.69753549	      0.00000000	      0.00000000	      0.00000000	  10094.55724102	      0.08798889	    -70.65805817	   -543.28411865	   -289.13661709	   -592.05437023	      0.00000000	      0.00000000	     -0.00000000	 -11425.29452419	      0.00000000	     -0.00000000	      0.00000000	      0.00000000	      0.00000000	      0.00000000	      0.00000000	      0.00000000	      0.00000000
      1.82000000	      0.00000000	     -0.00000000	      0.00000000	      0.00000000	      0.00000000	      0.00000000	      0.00000000	      0.00000000	      0.00000000	     -4.37631798	     74.60314178	   -564.71496582	   -259.92389171	  -1206.76510896	      0.00000000	      0.00000000	      0.00000000	  10211.53530476	      0.26545245	    -70.12697604	   -543.27813721	   -288.36781940	   -591.15315374	      0.00000000	      0.00000000	     -0.00000000	 -11579.60308184	      0.00000000	     -0.00000000	      0.00000000	      0.00000000	      0.00000000	      0.00000000	      0.00000000	      0.00000000	      0.00000000
